<?xml version="1.0" encoding="UTF-8" standalone="no"?>
<!-- Created with Inkscape (http://www.inkscape.org/) -->

<svg
   width="18"
   height="18"
   viewBox="0 0 4.7624999 4.7625001"
   version="1.1"
   id="svg984"
   inkscape:version="1.1 (c68e22c387, 2021-05-23)"
   sodipodi:docname="icon_widgets.svg"
   xmlns:inkscape="http://www.inkscape.org/namespaces/inkscape"
   xmlns:sodipodi="http://sodipodi.sourceforge.net/DTD/sodipodi-0.dtd"
   xmlns="http://www.w3.org/2000/svg"
   xmlns:svg="http://www.w3.org/2000/svg">
  <sodipodi:namedview
     id="namedview986"
     pagecolor="#505050"
     bordercolor="#eeeeee"
     borderopacity="1"
     inkscape:pageshadow="0"
     inkscape:pageopacity="0"
     inkscape:pagecheckerboard="0"
     inkscape:document-units="mm"
     showgrid="false"
     units="px"
     inkscape:zoom="0.73406285"
     inkscape:cx="274.49966"
     inkscape:cy="343.976"
     inkscape:window-width="1920"
     inkscape:window-height="1009"
     inkscape:window-x="1912"
     inkscape:window-y="-8"
     inkscape:window-maximized="1"
     inkscape:current-layer="layer1" />
  <defs
     id="defs981" />
  <g
     inkscape:label="Layer 1"
     inkscape:groupmode="layer"
     id="layer1">
    <g
       id="g1592"
       transform="scale(0.26458334)"
       inkscape:export-filename="C:\Users\vfxon\Downloads\Preview_01.png"
       inkscape:export-xdpi="288.13419"
       inkscape:export-ydpi="288.13419">
      <g
         id="g6"
         transform="matrix(0.03674969,0,0,0.03674969,9.19e-7,-1.3853197e-5)"
         style="fill:#c3ccdf;fill-opacity:1">
        <g
           id="g4"
           style="fill:#c3ccdf;fill-opacity:1">
          <path
             d="m 489.8,280.92 c 0,-13.9 -11.3,-25.2 -25.2,-25.2 h -74.1 c -62.1,0 -112.4,50.2 -112.7,112.2 -0.1,32.3 -23,61 -55,65 -38.4,4.8 -71.2,-25.2 -71.2,-62.6 v -56.4 c 57.6,-11.7 101,-62.6 101,-123.7 v -64 c 0,-9.1 -7.3,-16.4 -16.4,-16.4 h -31.3 v -79.1 c 0,-12.4 -9,-23.4 -21.3,-24.6 -14.1,-1.4 -26,9.7 -26,23.6 v 80.1 H 95.2 v -79.1 c 0,-12.4 -9,-23.4 -21.4,-24.6 -14.1,-1.3 -26,9.7 -26,23.6 v 80.1 H 16.4 c -9.1,0 -16.4,7.3 -16.4,16.4 v 64 c 0,61.1 43.4,112 101,123.7 v 53.5 c 0,61.5 47.7,114 109.2,116.3 64.6,2.4 118,-49.4 118,-113.5 v -0.9 c 0,-34.9 28.3,-63.1 63.1,-63.1 h 73.2 c 14,-0.1 25.3,-11.4 25.3,-25.3 z"
             id="path2"
             style="fill:#c3ccdf;fill-opacity:1" />
        </g>
      </g>
      <g
         id="g8" />
      <g
         id="g10" />
      <g
         id="g12" />
      <g
         id="g14" />
      <g
         id="g16" />
      <g
         id="g18" />
      <g
         id="g20" />
      <g
         id="g22" />
      <g
         id="g24" />
      <g
         id="g26" />
      <g
         id="g28" />
      <g
         id="g30" />
      <g
         id="g32" />
      <g
         id="g34" />
      <g
         id="g36" />
    </g>
  </g>
</svg>
