<?xml version="1.0" encoding="UTF-8" standalone="no"?>
<!-- Created with Inkscape (http://www.inkscape.org/) -->

<svg
   width="1200"
   height="720"
   viewBox="0 0 317.5 190.50001"
   version="1.1"
   id="svg5"
   inkscape:version="1.1 (c68e22c387, 2021-05-23)"
   sodipodi:docname="Layout.svg"
   xmlns:inkscape="http://www.inkscape.org/namespaces/inkscape"
   xmlns:sodipodi="http://sodipodi.sourceforge.net/DTD/sodipodi-0.dtd"
   xmlns="http://www.w3.org/2000/svg"
   xmlns:svg="http://www.w3.org/2000/svg">
  <sodipodi:namedview
     id="namedview7"
     pagecolor="#505050"
     bordercolor="#eeeeee"
     borderopacity="1"
     inkscape:pageshadow="0"
     inkscape:pageopacity="0"
     inkscape:pagecheckerboard="0"
     inkscape:document-units="px"
     showgrid="false"
     units="px"
     inkscape:snap-object-midpoints="true"
     inkscape:zoom="1"
     inkscape:cx="609.5"
     inkscape:cy="372.5"
     inkscape:window-width="1920"
     inkscape:window-height="1009"
     inkscape:window-x="1912"
     inkscape:window-y="-8"
     inkscape:window-maximized="1"
     inkscape:current-layer="layer1" />
  <defs
     id="defs2">
    <inkscape:path-effect
       hide_knots="false"
       only_selected="true"
       apply_with_radius="true"
       apply_no_radius="true"
       use_knot_distance="true"
       flexible="false"
       chamfer_steps="1"
       radius="1"
       mode="F"
       method="auto"
       unit="px"
       satellites_param="F,0,0,1,0,0,0,1 @ F,0,1,1,0,0.26458333,0,1 @ F,0,0,1,0,0,0,1 @ F,0,0,1,0,0,0,1 @ F,0,1,1,0,0.26458333,0,1 @ F,0,1,1,0,0.26458333,0,1 @ F,0,0,1,0,0,0,1 @ F,0,0,1,0,0,0,1 @ F,0,1,1,0,0.26458333,0,1 @ F,0,0,1,0,0,0,1 @ F,0,1,1,0,0.26458333,0,1 @ F,0,0,1,0,0,0,1 @ F,0,0,1,0,0,0,1 @ F,0,1,1,0,0.26458333,0,1 @ F,0,1,1,0,0.26458333,0,1 @ F,0,0,1,0,0,0,1 @ F,0,0,1,0,0,0,1 @ F,0,0,1,0,0,0,1 @ F,0,1,1,0,0.26458333,0,1 @ F,0,0,1,0,0,0,1 @ F,0,1,1,0,0.26458333,0,1 @ F,0,0,1,0,0,0,1 @ F,0,0,1,0,0,0,1 @ F,0,1,1,0,0.26458333,0,1 @ F,0,1,1,0,0.26458333,0,1 @ F,0,0,1,0,0,0,1 @ F,0,0,1,0,0,0,1 @ F,0,0,1,0,0,0,1 @ F,0,1,1,0,0.26458333,0,1 @ F,0,0,1,0,0,0,1 @ F,0,1,1,0,0.26458333,0,1 @ F,0,0,1,0,0,0,1 @ F,0,0,1,0,0,0,1 @ F,0,1,1,0,0.26458333,0,1 @ F,0,1,1,0,0.26458333,0,1 @ F,0,0,1,0,0,0,1 @ F,0,0,1,0,0,0,1 @ F,0,1,1,0,0.26458333,0,1 @ F,0,0,1,0,0,0,1 @ F,0,0,1,0,0,0,1 | F,0,0,1,0,0,0,1 @ F,0,0,1,0,0,0,1 @ F,0,0,1,0,0,0,1 @ F,0,0,1,0,0,0,1"
       lpeversion="1"
       is_visible="true"
       id="path-effect1635"
       effect="fillet_chamfer" />
  </defs>
  <g
     inkscape:label="Layer 1"
     inkscape:groupmode="layer"
     id="layer1">
    <rect
       style="fill:#282a36;fill-opacity:1;stroke-width:2.99667;stroke-linecap:round"
       id="rect31"
       width="317.5"
       height="190.5"
       x="4.1666667e-06"
       y="2.4999999e-06"
       sodipodi:insensitive="true" />
    <rect
       style="fill:#44475a;fill-opacity:1;stroke-width:0.611693;stroke-linecap:round"
       id="rect964"
       width="13.229167"
       height="190.5"
       x="0"
       y="-1.7763568e-15" />
    <rect
       style="fill:#21232d;fill-opacity:1;stroke-width:0.598815;stroke-linecap:round"
       id="rect1408"
       width="304.27084"
       height="7.9375"
       x="13.229167"
       y="2.4999999e-06" />
    <rect
       style="fill:#21232d;fill-opacity:1;stroke-width:0.598815;stroke-linecap:round"
       id="rect1408-9"
       width="304.27084"
       height="7.9375"
       x="13.229167"
       y="182.5625" />
    <path
       inkscape:export-ydpi="288.13419"
       inkscape:export-xdpi="288.13419"
       inkscape:export-filename="E:\ESTUDOS\TUTORIAIS\NEW\Qt Widgets Projects\PyOneDark\Layout\Exports\Preview_01.png"
       id="rect4"
       style="fill:#c3ccdf;fill-opacity:1;stroke-width:0.0149578"
       d="m 4.2333335,3.6989993 v 0.529166 h 4.7625001 v -0.529166 z m 0,2.1218341 v 0.529167 h 4.7625001 v -0.529167 z m 0,2.121834 v 0.529167 h 4.7625001 v -0.529167 z" />
    <path
       id="path872"
       style="fill:#c3ccdf;fill-opacity:1;stroke:#333333;stroke-width:0;stroke-linecap:round;stroke-miterlimit:4;stroke-dasharray:none"
       d="m 6.8613431,172.5083 c -0.093681,6.4e-4 -0.1871997,0.006 -0.2801627,0.0168 -0.1451336,0.0165 -0.2178365,0.13291 -0.2178503,0.24943 -7.2e-6,0.28489 -0.2309488,0.51584 -0.5158328,0.51585 -0.115515,4e-5 -0.22483,-0.0385 -0.3129588,-0.10564 -0.1149232,-0.0876 -0.259497,-0.13974 -0.3707019,-0.045 -0.129624,0.11039 -0.2482938,0.23303 -0.3543526,0.36622 -0.090983,0.11426 -0.060095,0.24801 0.022258,0.33038 0.2014445,0.20146 0.2014445,0.52807 0,0.72953 -0.081659,0.0816 -0.1861503,0.13165 -0.295927,0.14643 -0.1432137,0.0193 -0.2823089,0.0846 -0.2939976,0.23022 -0.00565,0.0704 -0.00848,0.14095 -0.00849,0.2116 1.38e-5,0.0997 0.00566,0.19924 0.016894,0.29816 0.016479,0.14513 0.1328666,0.21787 0.2492986,0.21786 0.284884,1e-5 0.5158255,0.23096 0.5158327,0.51585 -5e-6,0.11544 -0.038496,0.22468 -0.1056293,0.31275 -0.0876,0.11493 -0.1397345,0.25951 -0.045037,0.37072 0.1103825,0.12962 0.2330221,0.2483 0.3662066,0.35436 0.1142547,0.091 0.2479949,0.0601 0.3303645,-0.0222 0.09462,-0.0946 0.2223009,-0.14876 0.3560881,-0.151 0.1397958,-0.002 0.2745598,0.0521 0.3734297,0.151 0.081631,0.0817 0.1316434,0.18616 0.1464235,0.29594 0.019282,0.14321 0.084618,0.28231 0.2302139,0.29399 0.070406,0.006 0.1410459,0.008 0.2117494,0.008 0.099638,-1e-5 0.1991239,-0.006 0.2979864,-0.0169 0.1451323,-0.0165 0.2178695,-0.13286 0.2178472,-0.2493 7.3e-6,-0.28489 0.2309487,-0.51584 0.5158327,-0.51585 0.1154582,0 0.2247125,0.0385 0.3127998,0.10564 0.1149233,0.0876 0.259497,0.13974 0.3707018,0.045 0.1296238,-0.11039 0.2482933,-0.23303 0.3543519,-0.36622 0.090983,-0.11426 0.060095,-0.24801 -0.022258,-0.33038 -0.2014445,-0.20146 -0.2014445,-0.52807 0,-0.72953 0.09462,-0.0946 0.2223004,-0.14876 0.3560873,-0.151 0.1121038,-0.002 0.2223066,-0.08 0.2339954,-0.22564 0.00565,-0.0704 0.00849,-0.14105 0.00849,-0.21176 -2.35e-5,-0.0996 -0.00567,-0.19914 -0.016898,-0.29801 -0.016479,-0.14513 -0.13294,-0.21784 -0.2494585,-0.21786 -0.2848845,-1e-5 -0.5158266,-0.23096 -0.5158338,-0.51585 -6.1e-6,-0.11546 0.038487,-0.22471 0.10563,-0.3128 0.087601,-0.11493 0.139748,-0.25952 0.045065,-0.37074 -0.1103899,-0.12967 -0.2330437,-0.24838 -0.3662483,-0.35448 -0.1142465,-0.091 -0.247951,-0.06 -0.3303525,0.0224 -0.2014511,0.20146 -0.5280659,0.20146 -0.729517,0 -0.081635,-0.0817 -0.1316486,-0.18616 -0.1464275,-0.29595 -0.01928,-0.14321 -0.084614,-0.28231 -0.2302099,-0.29399 -0.070354,-0.006 -0.1409399,-0.008 -0.2115903,-0.008 -0.00594,-2e-5 -0.011879,-2e-5 -0.017819,0 z m 0.01782,1.78049 c 0.4778543,1e-5 0.8652305,0.38739 0.8652373,0.86526 8.16e-5,0.47793 -0.3873204,0.86541 -0.8652373,0.86542 -0.477917,-1e-5 -0.8653195,-0.38749 -0.8652379,-0.86542 6.8e-6,-0.47787 0.3873834,-0.86525 0.8652379,-0.86526 z" />
    <text
       xml:space="preserve"
       style="font-size:3.175px;line-height:1.25;font-family:'Segoe UI';-inkscape-font-specification:'Segoe UI';fill:#6272a4;fill-opacity:1;stroke-width:0.264583"
       x="16.404169"
       y="187.58958"
       id="text7407"><tspan
         sodipodi:role="line"
         id="tspan7405"
         style="font-size:3.175px;fill:#6272a4;fill-opacity:1;stroke-width:0.264583"
         x="16.404169"
         y="187.58958">Criado por: Wanderson M. Pimenta</tspan></text>
    <text
       xml:space="preserve"
       style="font-size:3.175px;line-height:1.25;font-family:'Segoe UI';-inkscape-font-specification:'Segoe UI';fill:#6272a4;fill-opacity:1;stroke-width:0.264583"
       x="303.60016"
       y="187.60587"
       id="text7407-6"><tspan
         sodipodi:role="line"
         id="tspan7405-7"
         style="font-size:3.175px;fill:#6272a4;fill-opacity:1;stroke-width:0.264583"
         x="303.60016"
         y="187.60587">© 2021</tspan></text>
    <text
       xml:space="preserve"
       style="font-size:3.175px;line-height:1.25;font-family:'Segoe UI';-inkscape-font-specification:'Segoe UI';fill:#6272a4;fill-opacity:1;stroke-width:0.264583"
       x="16.356882"
       y="5.0348425"
       id="text7407-5"><tspan
         sodipodi:role="line"
         id="tspan7405-9"
         style="font-size:3.175px;fill:#6272a4;fill-opacity:1;stroke-width:0.264583"
         x="16.356882"
         y="5.0348425">Essa é minha primeira aplicação com Qt Widgets</tspan></text>
    <text
       xml:space="preserve"
       style="font-size:3.175px;line-height:1.25;font-family:'Segoe UI';-inkscape-font-specification:'Segoe UI';fill:#6272a4;fill-opacity:1;stroke-width:0.264583"
       x="288.61313"
       y="5.0348425"
       id="text21973"><tspan
         sodipodi:role="line"
         id="tspan21971"
         style="font-style:normal;font-variant:normal;font-weight:bold;font-stretch:normal;font-size:3.175px;font-family:'Segoe UI';-inkscape-font-specification:'Segoe UI Bold';fill:#6272a4;fill-opacity:1;stroke-width:0.264583"
         x="288.61313"
         y="5.0348425">| PÁGINA INICIAL</tspan></text>
    <text
       xml:space="preserve"
       style="font-size:5.64444px;line-height:1.25;font-family:'Segoe UI';-inkscape-font-specification:'Segoe UI';fill:#f8f8f2;fill-opacity:1;stroke-width:0.264583"
       x="144.15114"
       y="97.224731"
       id="text23928"><tspan
         sodipodi:role="line"
         id="tspan23926"
         style="font-style:normal;font-variant:normal;font-weight:bold;font-stretch:normal;font-size:5.64444px;font-family:'Segoe UI';-inkscape-font-specification:'Segoe UI Bold';fill:#f8f8f2;fill-opacity:1;stroke-width:0.264583"
         x="144.15114"
         y="97.224731">PÁGINA INICIAL</tspan></text>
    <rect
       style="fill:#4f5368;fill-opacity:1;stroke-width:3.41957;stroke-linecap:round"
       id="rect29803"
       width="13.229167"
       height="10.583334"
       x="5.5511151e-17"
       y="12.170833" />
    <path
       inkscape:export-ydpi="288.13419"
       inkscape:export-xdpi="288.13419"
       inkscape:export-filename="E:\ESTUDOS\TUTORIAIS\NEW\Qt Widgets Projects\PyOneDark\Layout\Exports\Preview_01.png"
       id="path924"
       class="ci-primary"
       d="m 6.7570635,15.426509 c -0.12676,-0.110868 -0.32292,-0.106982 -0.44471,0.0088 -0.54091,0.514215 -1.08177,1.028471 -1.62268,1.542685 -0.1059,0.100686 -0.19176,0.300754 -0.19176,0.446879 v 1.889698 a 0.26458332,0.26458332 0 0 0 0.26459,0.264584 h 1.13392 a 0.26458332,0.26458332 0 0 0 0.26459,-0.264584 v -1.018815 a 0.13229166,0.13229166 0 0 1 0.13229,-0.132292 h 0.64256 a 0.13229166,0.13229166 0 0 1 0.13229,0.132292 v 1.018815 a 0.26458332,0.26458332 0 0 0 0.26458,0.264584 h 1.13393 a 0.26458332,0.26458332 0 0 0 0.26459,-0.264584 V 17.41785 c 0,-0.146126 -0.0892,-0.34258 -0.19914,-0.438789 -0.59165,-0.517555 -1.18337,-1.035038 -1.77505,-1.552552 z m -0.21784,0.301963 c 1.2e-4,-0.0016 1.2e-4,-0.0016 1.2e-4,-0.0016 z m 1.5666,3.481366 h -0.40055 a 0.26458332,0.26458332 0 0 1 -0.26458,-0.264584 v -0.875328 c 0,-0.158767 -0.13538,-0.287474 -0.30238,-0.287474 h -1.08254 c -0.167,0 -0.30238,0.128707 -0.30238,0.287474 v 0.875328 a 0.26458332,0.26458332 0 0 1 -0.26458,0.264584 h -0.34208 a 0.26458332,0.26458332 0 0 1 -0.26459,-0.264584 V 17.6375 a 0.63429308,0.63429308 0 0 1 0.18802,-0.450739 l 1.37517,-1.361555 c 0.0519,-0.0514 0.094,-0.09339 0.0942,-0.09339 l 1.63381,1.464505 a 0.59248394,0.59248394 0 0 1 0.19702,0.441184 v 1.307755 a 0.26458332,0.26458332 0 0 1 -0.26458,0.264585 z"
       fill="var(--ci-primary-color, currentColor)"
       style="fill:#c3ccdf;fill-opacity:1;stroke-width:0.00921352"
       sodipodi:nodetypes="cccccccccccscsccssssccccccc" />
    <g
       id="g1592"
       transform="matrix(0.26458334,0,0,0.26458334,4.2333332,25.664583)">
      <g
         id="g6"
         transform="matrix(0.03674969,0,0,0.03674969,9.19e-7,-1.3853197e-5)"
         style="fill:#c3ccdf;fill-opacity:1">
        <g
           id="g4"
           style="fill:#c3ccdf;fill-opacity:1">
          <path
             d="m 489.8,280.92 c 0,-13.9 -11.3,-25.2 -25.2,-25.2 h -74.1 c -62.1,0 -112.4,50.2 -112.7,112.2 -0.1,32.3 -23,61 -55,65 -38.4,4.8 -71.2,-25.2 -71.2,-62.6 v -56.4 c 57.6,-11.7 101,-62.6 101,-123.7 v -64 c 0,-9.1 -7.3,-16.4 -16.4,-16.4 h -31.3 v -79.1 c 0,-12.4 -9,-23.4 -21.3,-24.6 -14.1,-1.4 -26,9.7 -26,23.6 v 80.1 H 95.2 v -79.1 c 0,-12.4 -9,-23.4 -21.4,-24.6 -14.1,-1.3 -26,9.7 -26,23.6 v 80.1 H 16.4 c -9.1,0 -16.4,7.3 -16.4,16.4 v 64 c 0,61.1 43.4,112 101,123.7 v 53.5 c 0,61.5 47.7,114 109.2,116.3 64.6,2.4 118,-49.4 118,-113.5 v -0.9 c 0,-34.9 28.3,-63.1 63.1,-63.1 h 73.2 c 14,-0.1 25.3,-11.4 25.3,-25.3 z"
             id="path2"
             style="fill:#c3ccdf;fill-opacity:1" />
        </g>
      </g>
      <g
         id="g8" />
      <g
         id="g10" />
      <g
         id="g12" />
      <g
         id="g14" />
      <g
         id="g16" />
      <g
         id="g18" />
      <g
         id="g20" />
      <g
         id="g22" />
      <g
         id="g24" />
      <g
         id="g26" />
      <g
         id="g28" />
      <g
         id="g30" />
      <g
         id="g32" />
      <g
         id="g34" />
      <g
         id="g36" />
    </g>
    <rect
       style="fill:#282a36;fill-opacity:1;stroke-width:1.08137;stroke-linecap:round"
       id="rect42661"
       width="1.3229167"
       height="10.583334"
       x="11.90625"
       y="12.170833" />
    <rect
       style="fill:#3c3f50;fill-opacity:1;stroke-width:0.124861;stroke-linecap:round"
       id="rect43768"
       width="13.229167"
       height="7.9375"
       x="0"
       y="182.5625" />
    <text
       xml:space="preserve"
       style="font-size:3.175px;line-height:1.25;font-family:'Segoe UI';-inkscape-font-specification:'Segoe UI';fill:#c3ccdf;fill-opacity:1;stroke-width:0.264583"
       x="2.6528099"
       y="187.64824"
       id="text18642"><tspan
         sodipodi:role="line"
         id="tspan18640"
         style="font-size:3.175px;fill:#c3ccdf;fill-opacity:1;stroke-width:0.264583"
         x="2.6528099"
         y="187.64824">v1.0.0</tspan></text>
  </g>
</svg>
